# xmcd
#
# Track frame offsets: 
#        150
#        12003
#        23753
#        32300
#        41641
#        53417
#        66559
#        79765
#        92675
#        103264
#        114934
#        125815
#        137374
#        152828
#        164321
#        175685
#        187566
#        201941
#        214530
#        228374
#        240762
#        250977
#        263771
#        277613
#        289487
#        302004
#        314901
#
# Disc length: 4396 seconds
#
# Revision: 1
# Processed by: cddbd v1.5.2PL0 Copyright (c) Steve Scherf et al.
# Submitted via: ExactAudioCopy v1.0b4
#
DISCID=61112a1b
DTITLE=Various Artist - Down Home Blues - Detroit  disc 3
DYEAR=2016
DGENRE=Blues
TTITLE0=Baby Boy Warren - Somebody Put Bad Luck On Me
TTITLE1=Baby Boy Warren - Stop Breaking Down
TTITLE2=Little Sonny - Love Shock
TTITLE3=Little Sonny - I'll Love You Baby Until The Day I Die
TTITLE4=Eddie Kirkland - I'll Move You Baby
TTITLE5=Eddie Kirkland - Mercy Blues
TTITLE6=John Lee Hooker - Miss Sadie Mae
TTITLE7=John Lee Hooker - 609 Boogie
TTITLE8=Doctor Ross - Cat Squirrel
TTITLE9=Doctor Ross - The Sunnyland
TTITLE10=Bobo Jenkins - Nothing But Love
TTITLE11=Bobo Jenkins - Tell Me Who
TTITLE12=Eddie Burns - Orange Driver
TTITLE13=Eddie Burns - Hard Hearted Woman
TTITLE14=Little Sonny - I Gotta Find My Baby
TTITLE15=Little Sonny - Hear My Woman Calling
TTITLE16=Baby Boy Warren - Chuck-A-Luck (Or Chicken)
TTITLE17=Baby Boy Warren - Baby Boy Blues
TTITLE18=Eddie Kirkland - Done Somebody Wrong
TTITLE19=Eddie Kirkland - I Need You Baby
TTITLE20=Bob Kelly - She's My Baby
TTITLE21=Eddie Burns - The Thing To Do
TTITLE22=Little Sonny - I Hear My Woman Callin' (Alternate)
TTITLE23=Doctor Ross - Industrial Boogie
TTITLE24=Doctor Ross - Thirty Two Twenty
TTITLE25=Bobo Jenkins - Baby Don't You Want Me To Go (Alternate)
TTITLE26=Bobo Jenkins - Ten Below Zero (Alternate)
EXTD=
EXTT0=
EXTT1=
EXTT2=
EXTT3=
EXTT4=
EXTT5=
EXTT6=
EXTT7=
EXTT8=
EXTT9=
EXTT10=
EXTT11=
EXTT12=
EXTT13=
EXTT14=
EXTT15=
EXTT16=
EXTT17=
EXTT18=
EXTT19=
EXTT20=
EXTT21=
EXTT22=
EXTT23=
EXTT24=
EXTT25=
EXTT26=
PLAYORDER=
